<?xml version="1.0" encoding="UTF-8" standalone="no"?>
<!DOCTYPE svg PUBLIC "-//W3C//DTD SVG 1.1//EN" "http://www.w3.org/Graphics/SVG/1.1/DTD/svg11.dtd">
<svg width="100%" height="100%" viewBox="0 0 800 800" version="1.1" xmlns="http://www.w3.org/2000/svg" xmlns:xlink="http://www.w3.org/1999/xlink" xml:space="preserve" xmlns:serif="http://www.serif.com/" style="fill-rule:evenodd;clip-rule:evenodd;stroke-linejoin:round;stroke-miterlimit:2;">
    <g transform="matrix(-3.69384e-17,-0.60325,-0.617052,3.77835e-17,566.491,727.423)">
        <path d="M120.559,682.182L0,682.182L0,741.091C0,773.604 27,800 60.257,800L120.559,800L120.559,682.182ZM361.677,682.182L241.118,682.182L241.118,800L361.677,800L361.677,682.182ZM602.795,682.182L482.236,682.182L482.236,800L602.795,800L602.795,682.182ZM843.914,682.182L723.354,682.182L723.354,800L843.914,800L843.914,682.182ZM1085.03,682.182L964.473,682.182L964.473,800L1024.78,800C1058.03,800 1085.03,773.604 1085.03,741.091L1085.03,682.182ZM120.559,446.545L0,446.545L0,564.363L120.559,564.363L120.559,446.545ZM1085.03,446.545L964.473,446.545L964.473,564.363L1085.03,564.363L1085.03,446.545ZM1085.03,210.908L964.473,210.908L964.473,328.727L1085.03,328.727L1085.03,210.908ZM1085.03,-24.728L964.473,-24.728L964.473,93.09L1085.03,93.09L1085.03,-24.728ZM843.914,-260.365L723.354,-260.365L723.354,-142.547L843.914,-142.547L843.914,-260.365ZM1085.03,-201.456C1085.03,-233.969 1058.03,-260.365 1024.78,-260.365L964.473,-260.365L964.473,-142.547L1085.03,-142.547L1085.03,-201.456ZM60.257,-260.365C27,-260.365 0,-233.969 0,-201.456L0,328.727L602.795,328.727L602.795,-260.365L60.257,-260.365Z" style="fill:white;"/>
    </g>
</svg>
