<?xml version="1.0" encoding="UTF-8" standalone="no"?>
<!DOCTYPE svg PUBLIC "-//W3C//DTD SVG 1.1//EN" "http://www.w3.org/Graphics/SVG/1.1/DTD/svg11.dtd">
<svg width="100%" height="100%" viewBox="0 0 800 800" version="1.1" xmlns="http://www.w3.org/2000/svg" xmlns:xlink="http://www.w3.org/1999/xlink" xml:space="preserve" xmlns:serif="http://www.serif.com/" style="fill-rule:evenodd;clip-rule:evenodd;stroke-linejoin:round;stroke-miterlimit:2;">
    <g transform="matrix(0.60325,0,0,0.617052,72.7273,233.659)">
        <path d="M120.559,682.182L120.559,800L60.257,800C27,800 0,773.604 0,741.091L0,682.182L120.559,682.182ZM361.677,682.182L361.677,800L241.118,800L241.118,682.182L361.677,682.182ZM602.795,682.182L602.795,800L482.236,800L482.236,682.182L602.795,682.182ZM843.914,682.182L843.914,800L723.354,800L723.354,682.182L843.914,682.182ZM1085.03,682.182L1085.03,741.091C1085.03,773.604 1058.03,800 1024.78,800L964.473,800L964.473,682.182L1085.03,682.182ZM120.559,446.545L120.559,564.363L0,564.363L0,446.545L120.559,446.545ZM1085.03,446.545L1085.03,564.363L964.473,564.363L964.473,446.545L1085.03,446.545ZM1085.03,210.908L1085.03,328.727L964.473,328.727L964.473,210.908L1085.03,210.908ZM1085.03,-24.728L1085.03,93.09L964.473,93.09L964.473,-24.728L1085.03,-24.728ZM843.914,-260.365L843.914,-142.547L723.354,-142.547L723.354,-260.365L843.914,-260.365ZM1085.03,-201.456L1085.03,-142.547L964.473,-142.547L964.473,-260.365L1024.78,-260.365C1058.03,-260.365 1085.03,-233.969 1085.03,-201.456ZM60.257,-260.365L602.795,-260.365L602.795,328.727L0,328.727L0,-201.456C0,-233.969 27,-260.365 60.257,-260.365Z" style="fill:white;"/>
    </g>
</svg>
