<?xml version="1.0" encoding="UTF-8" standalone="no"?>
<!DOCTYPE svg PUBLIC "-//W3C//DTD SVG 1.1//EN" "http://www.w3.org/Graphics/SVG/1.1/DTD/svg11.dtd">
<svg width="100%" height="100%" viewBox="0 0 800 800" version="1.1" xmlns="http://www.w3.org/2000/svg" xmlns:xlink="http://www.w3.org/1999/xlink" xml:space="preserve" xmlns:serif="http://www.serif.com/" style="fill-rule:evenodd;clip-rule:evenodd;stroke-linejoin:round;stroke-miterlimit:2;">
    <g transform="matrix(1.11111,0,0,1.11111,-44.4444,-44.4444)">
        <path d="M272.615,138.001C284.538,137.968 295.96,133.205 304.374,124.757C328.825,100.209 362.65,85 400,85C437.35,85 471.175,100.209 495.626,124.757C504.039,133.205 515.462,137.968 527.384,138.001C601.589,138.205 661.795,198.411 661.999,272.615C662.032,284.538 666.795,295.96 675.243,304.374C699.791,328.825 715,362.65 715,400C715,437.35 699.791,471.175 675.243,495.626C666.795,504.039 662.032,515.462 661.999,527.384C661.795,601.589 601.589,661.795 527.385,661.999C515.462,662.032 504.04,666.795 495.626,675.243C471.175,699.791 437.35,715 400,715C362.65,715 328.825,699.791 304.374,675.243C295.961,666.795 284.538,662.032 272.616,661.999C198.411,661.795 138.205,601.589 138.001,527.385C137.968,515.462 133.205,504.04 124.757,495.626C100.209,471.175 85,437.35 85,400C85,362.65 100.209,328.825 124.757,304.374C133.205,295.961 137.968,284.538 138.001,272.616C138.205,198.411 198.411,138.205 272.615,138.001Z" style="fill:url(#_Radial1);"/>
    </g>
    <defs>
        <radialGradient id="_Radial1" cx="0" cy="0" r="1" gradientUnits="userSpaceOnUse" gradientTransform="matrix(495.232,0,0,495.232,353.291,320.305)"><stop offset="0" style="stop-color:rgb(255,200,0);stop-opacity:1"/><stop offset="0.54" style="stop-color:rgb(255,196,0);stop-opacity:1"/><stop offset="1" style="stop-color:rgb(255,160,0);stop-opacity:1"/></radialGradient>
    </defs>
</svg>
