<?xml version="1.0" encoding="UTF-8" standalone="no"?>
<!DOCTYPE svg PUBLIC "-//W3C//DTD SVG 1.1//EN" "http://www.w3.org/Graphics/SVG/1.1/DTD/svg11.dtd">
<svg width="100%" height="100%" viewBox="0 0 800 800" version="1.1" xmlns="http://www.w3.org/2000/svg" xmlns:xlink="http://www.w3.org/1999/xlink" xml:space="preserve" xmlns:serif="http://www.serif.com/" style="fill-rule:evenodd;clip-rule:evenodd;stroke-linejoin:round;stroke-miterlimit:2;">
    <g transform="matrix(1.11111,0,0,1.11111,-44.4444,-44.4444)">
        <path d="M624.824,611.539C625.004,616.966 622.842,622.208 618.888,625.93C594.842,648.215 562.699,661.902 527.385,661.999C515.462,662.032 504.04,666.795 495.626,675.243C471.175,699.791 437.35,715 400,715C362.65,715 328.825,699.791 304.374,675.243C295.961,666.795 284.538,662.032 272.616,661.999C198.411,661.795 138.205,601.589 138.001,527.385C137.968,515.462 133.205,504.04 124.757,495.626C100.209,471.175 85,437.35 85,400C85,362.65 100.209,328.825 124.757,304.374C133.205,295.961 137.968,284.538 138.001,272.616C138.205,198.411 198.411,138.205 272.615,138.001C284.538,137.968 295.96,133.205 304.374,124.757C328.825,100.209 362.65,85 400,85C437.35,85 471.175,100.209 495.626,124.757C504.039,133.205 515.462,137.968 527.384,138.001C601.589,138.205 661.795,198.411 661.999,272.615C662.032,284.538 666.795,295.96 675.243,304.374C693.45,322.509 706.519,345.8 712.056,371.861C712.447,373.743 711.956,375.7 710.722,377.175C709.489,378.649 707.65,379.478 705.728,379.426C688.566,379.427 648.733,379.422 648.733,379.422C640.441,379.422 632.504,382.787 626.739,388.747C620.973,394.707 617.874,402.752 618.15,411.04C618.15,411.04 623.54,572.969 624.824,611.539Z" style="fill:url(#_Radial1);"/>
    </g>
    <g transform="matrix(2.73822,0,0,2.73822,-665.061,-1137.19)">
        <path d="M512.262,565.448C513.152,565.448 514.004,565.81 514.624,566.45C515.243,567.09 515.576,567.954 515.547,568.844C515.094,582.581 513.401,633.943 512.961,647.277C512.903,649.049 511.449,650.456 509.676,650.456L495.901,650.456C494.128,650.456 492.675,649.05 492.616,647.278C492.172,633.947 490.462,582.584 490.005,568.845C489.975,567.954 490.308,567.09 490.927,566.45C491.547,565.81 492.399,565.448 493.29,565.448C498.226,565.448 507.326,565.448 512.262,565.448ZM489.217,676.735C489.217,673.187 490.453,670.212 492.924,667.81C495.396,665.408 498.696,664.207 502.824,664.207C506.934,664.207 510.225,665.408 512.695,667.81C515.165,670.212 516.401,673.187 516.401,676.735C516.401,680.245 515.165,683.202 512.695,685.604C510.225,688.006 506.934,689.207 502.824,689.207C498.696,689.207 495.396,688.006 492.924,685.604C490.453,683.202 489.217,680.245 489.217,676.735Z" style="fill:rgb(255,61,17);fill-rule:nonzero;"/>
    </g>
    <defs>
        <radialGradient id="_Radial1" cx="0" cy="0" r="1" gradientUnits="userSpaceOnUse" gradientTransform="matrix(495.232,0,0,495.232,353.291,320.305)"><stop offset="0" style="stop-color:rgb(255,179,0);stop-opacity:1"/><stop offset="0.5" style="stop-color:rgb(255,148,0);stop-opacity:1"/><stop offset="1" style="stop-color:rgb(255,0,29);stop-opacity:1"/></radialGradient>
    </defs>
</svg>
